<svg width="64" height="64" viewBox="0 0 64 64" xmlns="http://www.w3.org/2000/svg">
  <rect width="64" height="64" rx="12" fill="#050505"/>
  <path d="M33 12c3.5 6.3 8.5 10.2 8.5 17.3 0 6.7-5.1 11.8-11.5 11.8S18.6 36 18.6 28.8c0-4.7 2.7-9.5 7.6-12.8-1.4 3.9-.6 7.4 1.2 9.3 1.8 1.9 4.5 1.9 5.8-.8 1.3-2.7.5-6.9-.2-12.5Z" fill="#f2643d"/>
  <path d="M33.2 24.4c2.8 3 4.8 6.5 4.8 10.5 0 5.8-4.6 10.5-10.7 10.5-5.1 0-10.3-3.2-11.1-8.4 1.7 2.2 4 3.3 6.6 3.3 4.3 0 7.8-3.3 7.8-7.7 0-2.9-1.1-5.4-2.4-8.2Z" fill="#ffb357"/>
</svg>
